# xmcd CD database file generated by LOLA_Freedb v0.9beta0
# 
# Track frame offsets:
#      150
#      16984
#      33791
#      46920
#      62278
#      83358
#      101441
#      117783
#      134242
#      151073
#      168202
#      185958
#      200861
# 
# Disc length: 2872 seconds
# 
# Revision: 0 
# Processed by: cddbd v1.5.2PL0 Copyright (c) Steve Scherf et al.
# Submitted via: LOLA_Freedb v0.9beta0
# 
DISCID=a00b360d
DTITLE=Michael C. Kent - Some Kind Of Countrymusic
DYEAR=2008
DGENRE=
TTITLE0=Michael C. Kent - Life At the perfect Time
TTITLE1=Michael C. Kent - This Night
TTITLE2=Michael C. Kent - Where Do You Go Tonight
TTITLE3=Michael C. Kent - You Known About Me
TTITLE4=Michael C. Kent - Angel
TTITLE5=Michael C. Kent - Heart Of Rock 'n Roll
TTITLE6=Michael C. Kent - You Can't Pay The Moon
TTITLE7=Michael C. Kent - Sory
TTITLE8=Michael C. Kent - Conquered
TTITLE9=Michael C. Kent - The Road Goes On
TTITLE10=Michael C. Kent - Working Class Man
TTITLE11=Michael C. Kent - One Last Kiss
TTITLE12=Michael C. Kent - Root Beer Rag
EXTD=
EXTT0=
EXTT1=
EXTT2=
EXTT3=
EXTT4=
EXTT5=
EXTT6=
EXTT7=
EXTT8=
EXTT9=
EXTT10=
EXTT11=
EXTT12=
PLAYORDER=
